<?xml version="1.0" standalone="no"?>
<!DOCTYPE svg PUBLIC "-//W3C//DTD SVG 20010904//EN"
 "http://www.w3.org/TR/2001/REC-SVG-20010904/DTD/svg10.dtd">
<svg version="1.0" xmlns="http://www.w3.org/2000/svg"
 width="3177.000000pt" height="3177.000000pt" viewBox="0 0 3177.000000 3177.000000"
 preserveAspectRatio="xMidYMid meet">

<g transform="translate(0.000000,3177.000000) scale(0.100000,-0.100000)"
fill="#000000" stroke="none">
<path d="M4870 17740 l0 -4790 1035 0 1035 0 2 3038 3 3037 2015 -3037 2015
-3037 1038 0 1037 -1 0 4790 0 4790 -1035 0 -1035 0 -2 -3046 -3 -3047 -2016
3044 -2017 3044 -1036 3 -1036 2 0 -4790z"/>
<path d="M13453 22517 c2 -7 650 -2162 1438 -4790 l1433 -4777 1029 2 1029 3
895 3130 c493 1722 898 3133 902 3137 4 4 393 -1384 865 -3085 473 -1700 865
-3113 873 -3139 l14 -48 1022 0 1022 0 1459 4778 c802 2627 1461 4783 1463
4790 4 9 -213 12 -1064 12 l-1068 0 -645 -2103 c-354 -1156 -675 -2208 -713
-2337 -126 -432 -282 -1073 -382 -1575 -20 -99 -39 -187 -42 -195 -3 -8 -38
147 -78 345 -168 834 -152 770 -1044 4060 l-488 1800 -1171 3 -1171 2 -20 -67
c-61 -206 -1197 -4222 -1276 -4508 -138 -507 -259 -1047 -336 -1507 -13 -75
-25 -135 -27 -133 -2 2 -19 91 -38 197 -99 560 -213 1062 -357 1569 -36 125
-352 1177 -703 2338 l-637 2111 -1095 0 c-887 0 -1093 -2 -1089 -13z"/>
<path d="M25290 12826 l0 -506 -10865 0 -10865 0 0 -1025 0 -1025 10865 0
10865 0 0 -511 c0 -426 2 -510 14 -506 16 6 2876 2014 2892 2030 9 9 -332 253
-1431 1024 -793 557 -1450 1015 -1459 1019 -15 6 -16 -36 -16 -500z"/>
</g>
</svg>
